<svg width="563" height="405" viewBox="0 0 563 405" fill="none" xmlns="http://www.w3.org/2000/svg">
<path d="M273.773 388.894L30.965 251.936C23.2378 247.799 16.6085 240.988 24.1386 236.541L267.833 102.499C271.493 100.336 277.038 98.9252 280.754 100.981L535.61 242.17C543.337 246.455 544.731 258.425 537.018 262.71L305.779 388.679C300.924 391.367 295.419 392.801 289.806 392.839C284.193 392.876 278.667 391.517 273.773 388.894Z" fill="#F49A22"/>
<path d="M288.58 311.515C345.007 311.515 390.75 299.023 390.75 283.613C390.75 268.204 345.007 255.711 288.58 255.711C232.153 255.711 186.409 268.204 186.409 283.613C186.409 299.023 232.153 311.515 288.58 311.515Z" fill="#E2881E"/>
<path d="M286.342 248.39C272.806 244.023 259.973 237.879 248.213 230.133C247.997 231.414 247.814 232.704 247.664 234.002C249.296 235.252 251.014 236.353 252.421 237.267C256.272 239.747 260.325 241.93 264.54 243.796C273.548 247.826 283.09 250.714 292.45 253.925C302.613 257.377 313.957 261.461 322.318 268.326C322.712 267.636 323.087 266.938 323.444 266.23C315.181 256.034 298.038 252.366 286.342 248.39Z" fill="#FFBC2F"/>
<path d="M270.493 224.343C280.909 229.126 291.817 232.834 302.514 236.985C310.959 240.276 320.291 244.239 328.004 249.599C328.97 239.711 328.098 229.737 325.428 220.139C322.551 209.279 316.635 199.37 308.313 191.471C304.392 187.623 299.567 184.722 294.238 183.008C291.22 182.1 288.045 181.767 284.892 182.027C276.7 182.752 269.747 188.072 265.032 193.446C259.691 199.669 255.489 206.709 252.604 214.268C253.604 215.088 254.657 215.846 255.757 216.538C260.47 219.468 265.395 222.077 270.493 224.343Z" fill="#FFBC2F"/>
<path d="M257.024 255.658C253.804 253.978 250.693 252.117 247.706 250.083C250.197 269.078 262.147 285.212 290.086 285.131C300.093 285.131 307.736 282.539 313.45 278.415C304.062 271.16 291.437 267.829 280.149 264.457C272.162 262.241 264.417 259.294 257.024 255.658Z" fill="#FFBC2F"/>
<path d="M286.074 242.869C275.293 238.839 264.469 234.607 254.434 229.032C252.646 228.038 250.831 226.963 249.071 225.781C248.752 227.214 248.471 228.665 248.227 230.133C259.987 237.879 272.82 244.023 286.356 248.39C298.052 252.42 315.181 256.034 323.458 266.203C324.199 264.691 324.848 263.139 325.4 261.555C315.153 252.057 297.405 247.141 286.074 242.869Z" fill="#FF7384"/>
<path d="M317.912 274.358C307.834 265.384 291.029 261.448 279.332 257.471C270.001 254.301 260.641 250.902 252.126 246.012C250.521 245.085 248.846 244.105 247.213 243.03C247.242 245.379 247.406 247.724 247.706 250.056C250.693 252.09 253.804 253.952 257.024 255.631C264.424 259.245 272.173 262.169 280.163 264.363C291.423 267.735 304.09 271.08 313.464 278.32C315.078 277.14 316.568 275.813 317.912 274.358Z" fill="#FF7384"/>
<path d="M250.436 220.542C264.511 230.98 280.487 236.797 297.109 242.439C307.553 245.985 318.686 249.827 326.779 256.826C327.344 254.443 327.758 252.03 328.018 249.599C320.291 244.225 311.029 240.276 302.528 236.985C291.831 232.847 280.923 229.126 270.507 224.343C265.403 222.073 260.474 219.46 255.757 216.525C254.657 215.832 253.604 215.074 252.604 214.255C251.872 216.122 251.197 218.003 250.648 219.87L250.436 220.542Z" fill="#CC3637"/>
<path d="M250.436 220.542C249.93 222.252 249.461 223.999 249.029 225.781C250.788 226.963 252.59 228.038 254.392 229.032C264.441 234.607 275.251 238.812 286.032 242.869C297.377 247.141 315.111 252.057 325.358 261.542C325.893 260.01 326.357 258.425 326.765 256.826C318.686 249.827 307.539 245.972 297.095 242.439C280.473 236.797 264.469 230.98 250.436 220.542Z" fill="#CC3637"/>
<path d="M264.61 243.796C260.395 241.93 256.343 239.747 252.491 237.267C251.084 236.353 249.367 235.252 247.734 234.002C247.565 235.498 247.439 236.998 247.354 238.503C252.979 242.892 259.12 246.642 265.652 249.68C273.351 253.172 281.669 255.295 289.776 257.74C300.684 261.058 311.339 265.142 319.995 271.98C320.847 270.808 321.623 269.588 322.318 268.326C313.943 261.488 302.542 257.391 292.464 253.938C283.119 250.714 273.562 247.853 264.61 243.796Z" fill="#CC3637"/>
<path d="M247.213 243.043C248.86 244.105 250.521 245.099 252.125 246.026C260.57 250.915 270.001 254.314 279.332 257.485C291.029 261.515 307.834 265.384 317.912 274.371C318.616 273.61 319.282 272.817 319.911 271.993C311.255 265.169 300.614 261.071 289.692 257.753C281.584 255.295 273.266 253.172 265.567 249.693C259.035 246.656 252.895 242.905 247.27 238.516C247.213 240.021 247.195 241.53 247.213 243.043Z" fill="#CC3637"/>
<path d="M319.503 225.767C319.281 224.966 318.847 224.233 318.244 223.638C317.64 223.043 316.886 222.606 316.054 222.369C315.737 222.287 315.411 222.237 315.083 222.221C315.004 221.677 314.872 221.142 314.689 220.622C314.528 220.138 314.226 219.707 313.819 219.38C313.411 219.052 312.915 218.842 312.387 218.773C311.86 218.704 311.323 218.779 310.838 218.99C310.354 219.201 309.942 219.539 309.65 219.964C309.143 220.841 308.8 221.796 308.637 222.785C307.718 222.814 306.829 223.099 306.078 223.605C305.328 224.111 304.749 224.816 304.414 225.633C304.1 226.625 304.208 227.696 304.713 228.613C305.219 229.53 306.082 230.221 307.117 230.536C307.591 230.694 308.092 230.772 308.594 230.765C309.059 232.471 310.213 234.378 312.296 234.392C314.379 234.405 315.759 232.471 316.195 230.765C316.261 230.49 316.308 230.212 316.336 229.932C316.85 229.902 317.351 229.764 317.803 229.527C318.255 229.291 318.647 228.962 318.949 228.563C319.252 228.165 319.459 227.708 319.554 227.225C319.65 226.741 319.632 226.244 319.503 225.767Z" fill="#FFF7E9"/>
<path d="M278.009 267.896C277.778 266.909 277.187 266.032 276.341 265.422C275.496 264.812 274.451 264.508 273.393 264.564C272.779 264.578 272.169 264.664 271.577 264.819C271.465 262.495 270.662 260.319 267.819 260.588C265.567 260.803 264.863 262.643 264.751 264.685C264.442 264.552 264.122 264.444 263.794 264.363C261.711 263.852 259.022 264.363 258.417 266.606C257.558 269.777 261.232 271.295 264.371 271.778C264.212 272.462 264.221 273.172 264.397 273.853C264.572 274.533 264.91 275.166 265.384 275.701C266.07 276.394 266.97 276.859 267.953 277.029C268.935 277.198 269.949 277.062 270.845 276.641C271.685 276.215 272.39 275.581 272.885 274.806C273.38 274.031 273.648 273.143 273.66 272.235C273.66 272.141 273.66 272.047 273.66 271.953C276.25 271.684 278.46 270.65 278.009 267.896Z" fill="#FFF7E9"/>
<path d="M300.726 273.041C300.694 272.156 300.319 271.313 299.675 270.676C299.031 270.038 298.162 269.651 297.236 269.589C296.836 268.854 296.364 268.157 295.828 267.506C295.303 267.022 294.602 266.751 293.872 266.751C293.142 266.751 292.44 267.022 291.916 267.506L291.817 267.614C291.487 267.843 291.222 268.147 291.048 268.499C290.873 268.852 290.794 269.24 290.818 269.629C290.818 269.951 290.818 270.301 290.818 270.663C290.412 270.785 290.037 270.985 289.715 271.249C289.393 271.514 289.131 271.838 288.944 272.202C288.757 272.567 288.65 272.963 288.628 273.369C288.607 273.774 288.672 274.179 288.819 274.559C289.092 275.122 289.527 275.6 290.072 275.937C290.617 276.275 291.252 276.458 291.901 276.467C292.275 277.385 292.879 278.202 293.661 278.844C294.006 279.16 294.43 279.387 294.893 279.503C295.355 279.619 295.841 279.62 296.304 279.507C296.768 279.395 297.193 279.171 297.541 278.857C297.889 278.544 298.147 278.151 298.291 277.716C298.413 277.22 298.502 276.718 298.559 276.211C299.218 275.96 299.78 275.521 300.168 274.953C300.556 274.386 300.751 273.718 300.726 273.041Z" fill="#FFF7E9"/>
<path d="M295.674 202.258C295.332 201.021 294.664 199.888 293.732 198.969C292.801 198.049 291.637 197.373 290.353 197.006C289.861 196.879 289.356 196.803 288.847 196.777C288.725 195.942 288.523 195.119 288.242 194.319C287.13 191.175 282.316 190.033 280.444 193.284C279.663 194.638 279.135 196.111 278.882 197.637C277.468 197.688 276.101 198.133 274.949 198.916C273.796 199.698 272.908 200.785 272.394 202.043C271.905 203.584 272.075 205.247 272.866 206.669C273.657 208.091 275.005 209.156 276.616 209.633C277.348 209.88 278.12 210.003 278.896 209.996C279.614 212.683 281.402 215.585 284.611 215.598C287.82 215.611 289.945 212.629 290.621 209.996C290.728 209.554 290.803 209.105 290.846 208.653C291.631 208.597 292.393 208.378 293.08 208.012C293.767 207.645 294.361 207.139 294.821 206.53C295.282 205.92 295.596 205.222 295.743 204.484C295.891 203.746 295.867 202.986 295.674 202.258Z" fill="#FFF7E9"/>
<path d="M389.695 161.849C385.359 150.995 375.62 137.306 371.679 133.087C365.542 126.371 363.712 113.81 341.502 111.257C319.291 108.705 307.905 129.098 307.905 129.098C307.905 129.098 305.09 151.935 326.667 152.768C348.244 153.601 355.844 142.814 355.844 142.814C355.844 142.814 369.215 163.448 379.884 172.166L377.928 174.289C377.928 174.289 405.177 195.071 410.469 186.662C415.761 178.252 389.695 161.849 389.695 161.849Z" fill="#68E1FD"/>
<path opacity="0.23" d="M389.695 161.849C385.359 150.995 375.62 137.306 371.679 133.087C365.542 126.371 363.712 113.81 341.502 111.257C319.291 108.705 307.905 129.098 307.905 129.098C307.905 129.098 305.09 151.935 326.667 152.768C348.244 153.601 355.844 142.814 355.844 142.814C355.844 142.814 369.215 163.448 379.884 172.166L377.928 174.289C377.928 174.289 405.177 195.071 410.469 186.662C415.761 178.252 389.695 161.849 389.695 161.849Z" fill="#171918"/>
<path d="M237.656 117.867C273.196 99.4491 316.476 97.2863 352.79 115.073C357.575 117.424 362.164 120.54 364.81 125C373.705 139.966 353.311 147.609 341.291 149.302C325.344 151.546 310.72 145.836 295.04 145.5C285.314 145.285 275.617 146.669 266.018 147.986C257.01 149.221 231.013 156.046 226.959 143.526C221.386 126.29 237.656 117.867 237.656 117.867Z" fill="#68E1FD"/>
<path d="M200.104 153.87C200.104 153.87 185.621 174.679 181.891 187.521C178.161 200.364 187.901 200.404 196.051 191.068C204.2 181.731 231.238 149.06 231.238 149.06" fill="#68E1FD"/>
<path opacity="0.23" d="M200.104 153.87C200.104 153.87 185.621 174.679 181.891 187.521C178.161 200.364 187.901 200.404 196.051 191.068C204.2 181.731 231.238 149.06 231.238 149.06" fill="#171918"/>
<path d="M364.36 128.265C373.182 128.265 380.335 121.438 380.335 113.017C380.335 104.596 373.182 97.7699 364.36 97.7699C355.537 97.7699 348.384 104.596 348.384 113.017C348.384 121.438 355.537 128.265 364.36 128.265Z" fill="#68E1FD"/>
<path d="M357.927 173.308C363.782 171.132 369.609 168.902 375.521 166.914C373.837 161.051 371.672 155.324 369.046 149.786C364.824 141.846 366.471 129.205 345.668 121.346C324.865 113.487 296.222 122.596 296.222 122.596C296.222 122.596 299.6 151.854 320.277 157.913C340.953 163.972 351.143 155.361 351.143 155.361C351.143 155.361 353.93 164.039 357.927 173.308Z" fill="#68E1FD"/>
<path d="M229.071 137.803C229.071 137.803 206.635 176.465 202.905 189.321C199.175 202.178 208.915 202.204 217.065 192.868C225.214 183.531 265.961 140.476 265.961 140.476" fill="#68E1FD"/>
<path d="M357.927 173.308C357.927 173.308 386.725 195.917 398.154 192.532C409.582 189.147 375.521 166.9 375.521 166.9C375.521 166.9 361.235 164.146 357.927 173.308Z" fill="#68E1FD"/>
<path d="M336.871 154.501C338.813 155.079 345.189 169.789 357.984 173.308C370.778 176.828 355.886 142.814 355.886 142.814" fill="#68E1FD"/>
<path opacity="0.23" d="M239.655 116.846L246.904 113.514C246.904 113.514 252.928 146.656 217.684 158.195C217.684 158.168 238.994 138.676 239.655 116.846Z" fill="#171918"/>
<path d="M197.993 112.211C188.563 122.475 182.862 141.524 192.898 153.117C204.707 166.739 226.115 157.013 234.672 145.124C236.919 142.022 238.78 138.682 240.218 135.17C243.427 127.257 243.188 118.525 237.093 111.969C234.325 109.028 230.888 106.729 227.046 105.251C223.203 103.772 219.057 103.152 214.925 103.439C208.303 104.158 202.233 107.303 197.993 112.211Z" fill="#68E1FD"/>
<path d="M210.14 110.586C204.432 97.4579 199.806 83.9247 196.304 70.1097C193.419 59.3626 188.028 45.687 194.77 36.6057C200.555 28.8141 214.067 34.8056 219.922 41.8046C224.975 47.8498 227.156 55.9236 228.282 63.3793C230.774 79.9567 228.719 96.5743 226.382 112.413C226.213 113.55 226.044 114.683 225.876 115.812" fill="#68E1FD"/>
<path d="M202.075 116.524C200.667 115.274 165.86 74.8787 157.218 73.7099C148.576 72.5412 123.213 81.2329 118.751 89.8305C114.289 98.4282 121.918 103.452 130.081 102.969C138.245 102.485 155.571 85.3974 159.976 86.4855C164.382 87.5736 190.125 126.518 190.125 126.518L202.075 116.524Z" fill="#68E1FD"/>
<path d="M167.915 87.9364C166.653 87.2253 165.306 86.6615 163.903 86.2571C160.944 85.513 157.798 85.8733 155.107 87.2647L190.111 126.411L196.177 118.942L167.915 87.9364Z" fill="#68E1FD"/>
<path opacity="0.23" d="M167.915 87.9364C166.653 87.2253 165.306 86.6615 163.903 86.2571C160.944 85.513 157.798 85.8733 155.107 87.2647L190.111 126.411L196.177 118.942L167.915 87.9364Z" fill="#171918"/>
<path d="M208.952 139.171C210.212 138.645 210.288 136.152 209.12 133.602C207.952 131.053 205.983 129.413 204.722 129.94C203.462 130.466 203.386 132.959 204.554 135.508C205.722 138.057 207.691 139.697 208.952 139.171Z" fill="#171918"/>
<path d="M200.456 146.427C200.569 148.389 202.75 149.933 204.397 150.807C206.804 152.069 208.338 150.404 208.366 148.12C208.366 146.776 208.254 144.546 206.959 143.767C206.609 143.602 206.226 143.509 205.836 143.493C205.446 143.477 205.057 143.538 204.693 143.673C203.468 144.049 200.372 144.735 200.456 146.427Z" fill="#BF4761"/>
<path d="M198.169 141.909C199.43 141.383 199.505 138.89 198.337 136.341C197.169 133.791 195.2 132.152 193.94 132.678C192.679 133.204 192.604 135.697 193.772 138.246C194.94 140.795 196.908 142.435 198.169 141.909Z" fill="#171918"/>
<path opacity="0.23" d="M211.702 103.56L201.061 60.1015C201.061 60.1015 196.571 47.5005 206.903 46.3721C218.163 45.1496 219.852 102.794 219.852 102.794L211.702 103.56Z" fill="#171918"/>
<g style="mix-blend-mode:multiply">
<path d="M182.201 309.218L264.033 355.377L349.904 301.574L221.963 287.791L182.201 309.218Z" fill="url(#paint0_linear_3_3)"/>
</g>
<path d="M271.774 220.233C270.592 218.889 269.339 217.653 268.002 216.431C267.144 215.638 266.229 214.873 265.3 214.147C257.15 235.95 232.294 248.941 209.52 254.019C208.645 259.114 208.334 264.283 208.592 269.441C222.297 266.245 235.081 260.168 246.012 251.655C256.943 243.142 265.744 232.406 271.774 220.233ZM216.333 262.012C212.533 262.012 212.547 256.383 216.333 256.383C220.119 256.383 220.133 262.012 216.333 262.012Z" fill="#7BA348"/>
<path d="M288.003 262.71C287.7 256.521 286.69 250.381 284.991 244.4C283.462 239.031 281.22 233.871 278.319 229.045C271.254 241.493 261.504 252.369 249.713 260.958C237.923 269.546 224.358 275.652 209.915 278.871C210.457 281.228 211.191 283.541 212.11 285.79C235.923 279.739 257.277 266.988 273.393 249.196C277.615 244.494 284.779 251.345 280.543 256.02C263.767 274.447 241.735 287.815 217.135 294.495C218.185 295.841 219.343 297.107 220.597 298.283C233.23 295.947 245.608 292.498 257.572 287.979C270.493 282.875 279.079 272.504 288.003 262.71Z" fill="#7BA348"/>
<path d="M256.376 208.975C255.644 208.693 254.969 208.438 254.138 208.223C251.175 207.353 248.062 207.048 244.975 207.323C236.953 208.088 230.183 213.355 225.608 218.647C219.464 225.977 214.884 234.383 212.124 243.393C231.041 238.18 250.408 227.299 256.376 208.975Z" fill="#7BA348"/>
<path d="M261.204 292.601C250.061 297.042 238.5 300.46 226.678 302.81C232.857 306.384 240.753 308.439 250.873 308.332C277.123 308.063 286.567 290.223 287.918 271.348C280.191 279.812 272.21 288.02 261.204 292.601Z" fill="#7BA348"/>
<path d="M236.193 216.471C229.69 216.471 229.676 226.117 236.193 226.117C242.709 226.117 242.709 216.471 236.193 216.471Z" fill="#FEE300"/>
<path d="M233.11 249.518C229.324 249.518 229.31 255.147 233.11 255.147C236.91 255.147 236.91 249.518 233.11 249.518Z" fill="#FEE300"/>
<path d="M225.58 226.332C221.794 226.332 221.78 231.96 225.58 231.96C229.38 231.96 229.423 226.332 225.58 226.332Z" fill="#FEE300"/>
<path d="M247.833 207.699C244.046 207.699 244.032 213.328 247.833 213.328C251.633 213.328 251.633 207.699 247.833 207.699Z" fill="#FEE300"/>
<path d="M247.833 241.364C244.046 241.364 244.032 246.993 247.833 246.993C251.633 246.993 251.633 241.364 247.833 241.364Z" fill="#FEE300"/>
<path d="M264.272 222.409C260.486 222.409 260.472 228.038 264.272 228.038C268.072 228.038 268.072 222.409 264.272 222.409Z" fill="#FEE300"/>
<path d="M220.105 276.386C216.319 276.386 216.305 282.015 220.105 282.015C223.905 282.015 223.905 276.386 220.105 276.386Z" fill="#FEE300"/>
<path d="M236.882 270.112C233.096 270.112 233.082 275.741 236.882 275.741C240.683 275.741 240.683 270.112 236.882 270.112Z" fill="#FEE300"/>
<path d="M263.203 251.816C259.416 251.816 259.402 257.444 263.203 257.444C267.003 257.444 267.045 251.816 263.203 251.816Z" fill="#FEE300"/>
<path d="M277.278 235.158C273.491 235.158 273.477 240.786 277.278 240.786C281.078 240.786 281.078 235.158 277.278 235.158Z" fill="#FEE300"/>
<path d="M265.3 214.134C262.624 211.982 259.613 210.242 256.376 208.975C250.408 227.299 231.041 238.18 212.11 243.393C211.97 243.809 211.829 244.239 211.702 244.655C210.785 247.746 210.061 250.886 209.535 254.059C232.238 248.927 257.15 235.937 265.3 214.134Z" fill="#68E1FD"/>
<path d="M278.319 229.045C276.432 225.918 274.24 222.968 271.774 220.233C265.746 232.405 256.947 243.139 246.018 251.652C235.09 260.166 222.308 266.243 208.606 269.441C208.771 272.604 209.209 275.749 209.915 278.844C224.356 275.628 237.919 269.526 249.709 260.943C261.5 252.359 271.251 241.488 278.319 229.045Z" fill="#68E1FD"/>
<path d="M280.529 256.047C284.751 251.372 277.714 244.521 273.379 249.223C257.263 267.003 235.915 279.744 212.11 285.79C213.365 288.892 215.051 291.82 217.121 294.495C241.718 287.823 263.749 274.464 280.529 256.047Z" fill="#68E1FD"/>
<path d="M216.333 256.396C212.547 256.396 212.533 262.025 216.333 262.025C220.133 262.025 220.133 256.396 216.333 256.396Z" fill="#FEE300"/>
<path d="M288.003 262.71C279.079 272.504 270.493 282.861 257.643 287.979C245.657 292.511 233.255 295.97 220.597 298.31C222.437 300.024 224.477 301.53 226.678 302.797C238.5 300.447 250.061 297.028 261.204 292.587C272.211 288.02 280.191 279.798 287.946 271.335C288.137 268.463 288.156 265.584 288.003 262.71Z" fill="#FEE300"/>
<path d="M314.464 292.372C309.875 288.866 305.653 284.688 303.71 279.274C301.444 272.974 302.627 266.055 305.118 259.983C307.046 255.268 311.902 248.336 309.467 243.151C308.369 240.827 305.836 239.242 303.978 237.495C300.141 234.05 297.766 229.379 297.306 224.37C293.633 230.213 290.793 236.497 288.861 243.057C280.684 270.435 286.342 307.149 328.032 306.72H328.75C328.511 305.646 328.093 304.617 327.511 303.67C324.443 298.861 318.94 295.798 314.464 292.372Z" fill="#16A79E"/>
<path d="M322.599 286.287C317.265 282.351 312.198 277.998 312.606 271.026C313.324 258.734 326.343 247.342 316.125 235.453C311.902 230.536 306.638 228.132 307.412 220.864C307.919 216.176 310.495 212.065 313.507 208.317C309.352 210.547 305.682 213.515 302.697 217.062C300.714 219.376 298.908 221.823 297.292 224.384C297.752 229.392 300.127 234.064 303.964 237.509C305.822 239.255 308.355 240.827 309.453 243.164C311.888 248.35 307.046 255.255 305.104 259.997C302.613 266.069 301.43 272.974 303.696 279.288C305.639 284.661 309.861 288.866 314.45 292.386C319.038 295.905 324.429 298.888 327.455 303.67C328.037 304.617 328.455 305.646 328.693 306.72C332.043 306.666 335.376 306.256 338.63 305.497C338.197 302.749 337.135 300.125 335.52 297.813C332.17 293.057 327.3 289.753 322.599 286.287Z" fill="#68E1FD"/>
<path d="M358.476 286.502C353.691 282.472 346.836 281.652 341.882 277.743C332.029 270.018 332.888 256.034 341.755 248.081C343.543 246.482 346.555 244.776 347.512 242.533C348.652 239.846 346.104 237.979 343.894 236.703C338.138 233.277 332.409 231.477 328.313 225.955C326.166 223.043 324.899 219.622 324.65 216.068C324.402 212.515 325.182 208.964 326.906 205.805C325.32 205.643 323.721 205.643 322.135 205.805C319.126 206.121 316.213 207.002 313.563 208.397C310.551 212.145 307.933 216.256 307.468 220.945C306.694 228.212 311.958 230.617 316.181 235.534C326.385 247.423 313.366 258.815 312.662 271.107C312.254 278.079 317.321 282.431 322.655 286.367C327.356 289.833 332.17 293.084 335.576 297.88C337.191 300.193 338.254 302.816 338.687 305.564C343.436 304.481 347.86 302.366 351.612 299.384C355.365 296.401 358.345 292.631 360.32 288.369C359.763 287.697 359.146 287.072 358.476 286.502Z" fill="#16A79E"/>
<path d="M336.393 220.058C340.052 225.432 347.23 226.52 352.185 230.496C357.139 234.472 359.532 240.316 356.956 246.066C354.634 251.238 348.877 253.36 346.104 258.049C344.816 260.35 344.517 263.039 345.271 265.547C346.025 268.055 347.773 270.184 350.144 271.483C354.648 274.169 359.658 275.392 363.881 278.28C366.513 266.445 365.148 253.078 362.192 242.775C359.287 232.155 353.415 222.488 345.203 214.805C342.725 212.493 339.943 210.497 336.927 208.868C333.901 211.662 333.958 216.538 336.393 220.058Z" fill="#16A79E"/>
<path d="M350.073 271.496C347.703 270.197 345.955 268.069 345.201 265.561C344.446 263.053 344.745 260.363 346.034 258.062C348.849 253.374 354.563 251.251 356.886 246.079C359.461 240.343 356.886 234.378 352.114 230.51C347.343 226.641 339.982 225.499 336.322 220.071C333.958 216.552 333.901 211.662 336.843 208.894C335.057 207.951 333.169 207.194 331.213 206.638C329.779 206.228 328.309 205.94 326.822 205.778C325.098 208.937 324.318 212.488 324.566 216.042C324.814 219.595 326.081 223.016 328.229 225.929C332.325 231.504 338.082 233.29 343.81 236.676C345.964 238.019 348.567 239.859 347.427 242.506C346.47 244.736 343.458 246.442 341.671 248.054C332.803 256.007 331.987 269.992 341.797 277.716C346.752 281.612 353.606 282.458 358.392 286.475C359.067 287.044 359.688 287.669 360.25 288.342C361.82 285.129 362.991 281.753 363.74 278.28C359.588 275.419 354.592 274.129 350.073 271.496Z" fill="#68E1FD"/>
<path d="M318.911 218.244C312.409 218.244 312.395 227.89 318.911 227.89C325.428 227.89 325.414 218.244 318.911 218.244Z" fill="#68E1FD"/>
<path d="M331.297 235.977C324.795 235.977 324.781 245.623 331.297 245.623C337.814 245.623 337.8 235.977 331.297 235.977Z" fill="#68E1FD"/>
<path d="M340.136 286.206C333.634 286.206 333.62 295.852 340.136 295.852C346.653 295.852 346.653 286.206 340.136 286.206Z" fill="#68E1FD"/>
<path d="M356.506 253.696C350.003 253.696 349.989 263.342 356.506 263.342C363.022 263.342 363.008 253.696 356.506 253.696Z" fill="#68E1FD"/>
<path d="M330.171 266.432C329.784 265.122 328.881 264.005 327.652 263.315L327.131 263.087L327.019 263.006C325.764 262.308 324.271 262.114 322.867 262.466C321.462 262.819 320.262 263.69 319.531 264.887L318.982 266.136C318.721 267.046 318.721 268.007 318.982 268.917C319.27 269.844 319.786 270.691 320.488 271.389C320.865 271.75 321.291 272.062 321.755 272.316C323.156 273.062 324.804 273.264 326.357 272.88C327.757 272.512 328.946 271.63 329.664 270.426C330.382 269.221 330.57 267.794 330.185 266.458L330.171 266.432Z" fill="#68E1FD"/>
<path d="M257.685 259.339C260.148 256.41 262.499 253.414 264.723 250.311C265.244 249.518 265.993 248.885 266.88 248.487C267.767 248.089 268.755 247.941 269.727 248.063C270.699 248.185 271.615 248.57 272.364 249.173C273.114 249.776 273.666 250.572 273.956 251.466C274.887 254.448 276.354 257.252 278.291 259.755C281.157 256.819 283.743 253.645 286.018 250.271C287.651 247.853 291.747 246.818 293.956 249.29C297.333 253.121 301.059 256.659 305.09 259.862C309.031 255.174 312.447 250.104 315.28 244.736C315.536 244.257 315.891 243.833 316.322 243.487C313.862 240.019 311.032 236.804 307.877 233.895C303.653 229.816 298.47 226.758 292.76 224.975C289.533 224.027 286.142 223.694 282.781 223.994C274.054 224.827 266.679 230.563 261.668 236.326C257.873 240.789 254.65 245.669 252.069 250.862V250.942L257.685 259.339Z" fill="#68E1FD"/>
<path d="M245.102 303.67C247.678 313.235 252.914 321.631 261.64 327.139C268.836 321.049 278.09 317.639 287.707 317.533C297.323 317.427 306.658 320.632 313.999 326.561C321.22 321.188 325.527 313.437 327.765 304.772C316.758 310.508 302.993 311.489 290.452 311.489C274.983 311.583 259.318 309.433 245.102 303.67Z" fill="#68E1FD"/>
<path d="M271.943 331.72C277.547 333.294 283.373 334.029 289.213 333.896C294.285 333.902 299.323 333.122 304.133 331.586C299.327 328.637 293.73 327.08 288.017 327.104C282.304 327.127 276.721 328.731 271.943 331.72Z" fill="#68E1FD"/>
<path d="M243.16 284.957C243.061 287.361 243.16 289.766 243.244 292.144C256.855 299.009 272.225 301.655 287.623 301.857C300.98 302.031 319.868 302.031 329.636 291.62C329.721 289.672 329.735 287.738 329.636 285.803C315.561 290.545 300.431 291.889 285.54 291.835C271.366 291.781 256.052 290.787 243.16 284.957Z" fill="#68E1FD"/>
<path d="M287.017 282.189C301.219 282.189 315.646 280.846 328.806 275.822C328.249 271.947 327.431 268.11 326.357 264.336C325.836 262.549 325.245 260.762 324.584 258.962L320.783 255.187C317.488 260.41 313.68 265.322 309.411 269.857C308.621 270.611 307.592 271.093 306.484 271.229C305.376 271.366 304.252 271.148 303.288 270.609C298.873 267.517 294.731 264.084 290.902 260.346C288.118 263.869 285.024 267.158 281.655 270.18C280.695 271.063 279.413 271.556 278.08 271.556C276.746 271.556 275.465 271.063 274.505 270.18C271.976 267.84 269.793 265.183 268.016 262.281C265.67 265.218 263.226 268.084 260.683 270.878C258.459 273.31 254.378 272.369 252.745 269.897L247.439 261.837C247.129 262.737 246.847 263.651 246.58 264.524C245.605 267.797 244.83 271.12 244.258 274.478C256.714 281.666 272.647 282.23 287.017 282.189Z" fill="#68E1FD"/>
<path d="M260.683 270.918C263.226 268.133 265.67 265.267 268.016 262.321C269.793 265.223 271.976 267.881 274.505 270.22C275.465 271.103 276.746 271.597 278.08 271.597C279.413 271.597 280.695 271.103 281.655 270.22C285.024 267.199 288.118 263.909 290.902 260.386C294.731 264.124 298.873 267.557 303.288 270.65C304.252 271.188 305.376 271.406 306.484 271.27C307.592 271.134 308.621 270.651 309.411 269.897C313.68 265.363 317.488 260.451 320.783 255.228L324.584 259.003C322.552 253.516 319.79 248.301 316.364 243.487C315.933 243.833 315.579 244.257 315.322 244.736C312.484 250.105 309.064 255.175 305.118 259.862C301.087 256.659 297.361 253.121 293.985 249.29C291.789 246.805 287.679 247.853 286.046 250.271C283.771 253.645 281.185 256.819 278.319 259.755C276.382 257.252 274.915 254.448 273.984 251.466C273.694 250.572 273.142 249.776 272.392 249.173C271.643 248.57 270.728 248.185 269.755 248.063C268.783 247.941 267.795 248.089 266.908 248.487C266.021 248.885 265.272 249.518 264.751 250.311C262.513 253.414 260.162 256.423 257.713 259.339L252.125 250.862V250.781C250.318 254.364 248.776 258.063 247.509 261.851L252.815 269.911C254.377 272.356 258.473 273.35 260.683 270.918Z" fill="#E24E47"/>
<path d="M287.017 282.189C272.661 282.189 256.728 281.652 244.258 274.586C243.666 278.018 243.3 281.481 243.16 284.957C256.038 290.774 271.31 291.781 285.582 291.835C300.473 291.835 315.66 290.492 329.679 285.803C329.574 282.463 329.278 279.131 328.792 275.822C315.632 280.806 301.205 282.163 287.017 282.189Z" fill="#FF7384"/>
<path d="M287.637 301.91C272.239 301.709 256.869 299.062 243.258 292.198C243.488 296.082 244.105 299.938 245.102 303.71C259.318 309.474 274.983 311.623 290.452 311.556C302.993 311.556 316.758 310.535 327.765 304.839C328.847 300.534 329.479 296.138 329.651 291.714C319.868 302.031 300.98 302.045 287.637 301.91Z" fill="#E24E47"/>
<path d="M261.64 327.139C264.826 329.133 268.296 330.681 271.943 331.733C276.721 328.744 282.304 327.141 288.017 327.117C293.73 327.093 299.327 328.65 304.133 331.599C307.683 330.445 311.011 328.743 313.985 326.561C306.645 320.636 297.313 317.432 287.7 317.539C278.087 317.645 268.835 321.053 261.64 327.139Z" fill="#F49A22"/>
<path d="M276.208 232.565C269.705 232.565 269.691 242.21 276.208 242.21C282.725 242.21 282.71 232.565 276.208 232.565Z" fill="#16A79E"/>
<path d="M298.503 232.565C292 232.565 291.986 242.21 298.503 242.21C305.019 242.21 305.019 232.565 298.503 232.565Z" fill="#16A79E"/>
<path style="mix-blend-mode:multiply" d="M84.0137 251.439C85.4212 251.211 86.5894 251.238 87.1383 251.856C86.139 261.26 93.2187 256.652 96.3152 259.016L98.9754 257.955C104.366 252.81 106.984 247.597 112.445 242.519C110.573 241.176 111.558 239.953 109.743 238.597C100.803 242.178 92.1959 246.475 84.0137 251.439Z" fill="url(#paint1_linear_3_3)"/>
<path d="M112.445 242.519V196.267H101.903V242.922C105.563 243.943 109.391 244.145 112.445 242.519Z" fill="#A83F1E"/>
<path d="M108.251 196.401V243.769C109.724 243.681 111.162 243.301 112.473 242.654V196.401H108.251Z" fill="#7F2B14"/>
<path d="M121.861 200.592C128.42 200.297 136.823 198.04 134.36 191.068C132.952 186.944 128.434 183.303 125.577 180.039C122.72 176.774 123.353 174.585 120.158 171.374C122.875 171.481 126.816 170.998 127.491 168.418C128.083 166.162 115.401 152.298 109.912 146.763C109.308 146.147 108.483 145.77 107.602 145.708C106.72 145.646 105.847 145.903 105.154 146.427C98.6235 151.398 81.9306 164.617 84.267 168.418C85.6745 170.716 88.4895 171.508 91.0512 171.723C85.0552 177.459 78.2007 184.646 77.511 192.29C76.9058 198.927 84.0137 199.813 90.643 199.464C86.0686 204.837 73.6404 219.91 76.4695 224.505C77.9614 226.923 82.7892 227.729 85.6323 228.266C91.8159 229.463 98.1131 230.044 104.422 229.999C110.765 230.087 117.08 229.179 123.114 227.312C126.483 226.329 129.609 224.707 132.305 222.543C135.219 219.924 133.586 217.17 131.7 214.483C128.322 209.902 125.085 205.187 121.861 200.592Z" fill="#7BA348"/>
<path d="M120.158 171.374C120.158 171.374 112.178 170.877 106.604 171.011L134.754 193.123C134.754 193.123 135.5 190.557 130.532 185.291C126.695 180.92 123.226 176.267 120.158 171.374Z" fill="#0D5B23"/>
<path d="M121.861 200.592H105.464L132.206 222.543C133.017 221.986 133.586 221.163 133.803 220.232C134.021 219.301 133.874 218.326 133.389 217.492C131.629 214.51 121.861 200.592 121.861 200.592Z" fill="#0D5B23"/>
<path style="mix-blend-mode:multiply" d="M457.635 263.96C458.915 263.758 459.957 263.785 460.45 264.336C459.549 272.799 465.925 268.662 468.726 270.798L471.133 269.844C475.988 265.196 478.353 260.44 483.279 255.926C481.59 254.771 482.477 253.602 480.844 252.393C472.78 255.618 465.016 259.487 457.635 263.96Z" fill="url(#paint2_linear_3_3)"/>
<path d="M483.265 255.926V214.281H473.75V256.235C476.843 257.317 480.256 257.206 483.265 255.926Z" fill="#A83F1E"/>
<path d="M479.479 214.335V257.041C480.8 256.959 482.09 256.616 483.265 256.034V214.389L479.479 214.335Z" fill="#7F2B14"/>
<path d="M491.752 218.124C497.664 217.855 505.236 215.826 503.012 209.526C501.703 205.805 497.678 202.527 495.088 199.585C492.498 196.643 493.075 194.668 490.204 191.78C492.653 191.874 496.214 191.431 496.819 189.093C497.34 187.065 485.925 174.625 480.971 169.574C480.429 169.036 479.699 168.708 478.919 168.653C478.139 168.599 477.366 168.821 476.748 169.278C470.851 173.752 455.819 185.667 457.916 189.106C459.183 191.175 461.744 191.901 464.039 192.089C458.634 197.261 452.455 203.736 451.836 210.641C451.287 216.619 457.705 217.358 463.673 217.116C459.549 221.898 448.345 235.547 450.907 239.685C452.314 241.875 456.537 242.587 459.169 243.084C464.727 244.158 470.387 244.681 476.059 244.642C481.79 244.727 487.496 243.91 492.949 242.224C495.963 241.326 498.758 239.859 501.169 237.912C503.801 235.547 502.323 233.049 500.62 230.671C497.579 226.52 494.666 222.315 491.752 218.124Z" fill="#7BA348"/>
<path d="M490.218 191.753C490.218 191.753 483.012 191.31 478.001 191.431L503.336 211.366C503.336 211.366 504.012 209.056 499.522 204.3C496.08 200.358 492.969 196.162 490.218 191.753Z" fill="#0D5B23"/>
<path d="M491.752 218.124H476.974L501.07 237.912C501.801 237.408 502.312 236.666 502.506 235.826C502.701 234.987 502.565 234.108 502.126 233.358C500.563 230.711 491.752 218.124 491.752 218.124Z" fill="#0D5B23"/>
<defs>
<linearGradient id="paint0_linear_3_3" x1="278.868" y1="288.06" x2="242.163" y2="342.575" gradientUnits="userSpaceOnUse">
<stop stop-color="#D4A397"/>
<stop offset="1" stop-color="white"/>
</linearGradient>
<linearGradient id="paint1_linear_3_3" x1="113.768" y1="236.004" x2="90.6833" y2="257.263" gradientUnits="userSpaceOnUse">
<stop stop-color="#D4A397"/>
<stop offset="1" stop-color="white"/>
</linearGradient>
<linearGradient id="paint2_linear_3_3" x1="476.58" y1="253.293" x2="464.073" y2="268.713" gradientUnits="userSpaceOnUse">
<stop stop-color="#D4A397"/>
<stop offset="1" stop-color="white"/>
</linearGradient>
</defs>
</svg>
