<svg width="681" height="497" viewBox="0 0 681 497" fill="none" xmlns="http://www.w3.org/2000/svg">
<path d="M70.7846 49.4315C63.1234 116.564 -49.9887 321.764 26.326 345.83C111.553 372.706 174.238 80.8336 265.473 80.752C380.44 80.6492 129.953 315.581 230.312 361.872C352.013 418.006 261.317 97.4879 396.814 124.575C538.098 152.818 233.068 405.152 377.927 395.107C476.737 388.255 418.035 168.221 502.294 211.368C575.127 248.663 426.877 454.296 502.294 420.68C535.864 405.717 598.264 245.781 632.325 231.593C700.82 203.063 564.304 463.973 632.325 493.265C648.14 500.075 665.182 497.132 681 488.004V-1H99.7501C85.3467 18.9723 71.9475 39.2416 70.7846 49.4315Z" fill="#FFFAFA"/>
</svg>
